<?xml version="1.0" encoding="utf-8"?>
<!-- Generator: Adobe Illustrator 19.1.0, SVG Export Plug-In . SVG Version: 6.00 Build 0)  -->
<svg version="1.1" id="Layer_1" xmlns="http://www.w3.org/2000/svg" xmlns:xlink="http://www.w3.org/1999/xlink" x="0px" y="0px"
	 viewBox="0 0 574.7 78.4" style="enable-background:new 0 0 574.7 78.4;" xml:space="preserve">
<g>
	<path d="M0,39.4v-0.2C0,17.6,17,0,40.4,0s40.2,17.4,40.2,39v0.2c0,21.5-17,39.2-40.4,39.2S0,60.9,0,39.4z M63.1,39.4v-0.2
		c0-13-9.5-23.8-22.9-23.8C26.7,15.4,17.4,26,17.4,39v0.2c0,13,9.5,23.8,22.9,23.8S63.1,52.4,63.1,39.4z"/>
	<path d="M89.4,1.3h35.2c8.7,0,15.5,2.4,19.8,6.7c3.5,3.5,5.2,7.7,5.2,12.9v0.2c0,8.6-4.5,13.3-10,16.3c8.8,3.4,14.2,8.4,14.2,18.6
		v0.2c0,13.9-11.3,20.8-28.4,20.8h-36V1.3z M133,23.7c0-5-3.9-7.8-10.9-7.8h-16.5v16H121c7.4,0,12-2.4,12-8V23.7z M124.9,45.8h-19.3
		v16.7h19.8c7.4,0,11.8-2.6,11.8-8.2V54C137.2,48.9,133.4,45.8,124.9,45.8z"/>
	<path d="M157.6,66l9.9-11.8c6.8,5.6,14,9.2,22.6,9.2c6.8,0,10.9-2.7,10.9-7.1v-0.2c0-4.2-2.6-6.4-15.3-9.6
		c-15.3-3.9-25.1-8.1-25.1-23.2v-0.2c0-13.7,11-22.8,26.5-22.8c11,0,20.5,3.5,28.1,9.6l-8.7,12.6c-6.7-4.7-13.3-7.5-19.7-7.5
		c-6.4,0-9.7,2.9-9.7,6.6v0.2c0,5,3.2,6.6,16.3,10c15.4,4,24,9.5,24,22.7v0.2c0,15-11.5,23.5-27.8,23.5
		C178.3,78.2,166.7,74.1,157.6,66z"/>
	<path d="M293.7,1.3h34.6c9.6,0,17.1,2.7,22.1,7.7c4.2,4.2,6.5,10.2,6.5,17.3v0.2c0,12.2-6.6,19.9-16.2,23.5l18.5,27.1h-19.5
		l-16.2-24.2h-13.1v24.2h-16.7V1.3z M327.2,38.1c8.1,0,12.8-4.3,12.8-10.7v-0.2c0-7.1-5-10.8-13.1-10.8h-16.6v21.8H327.2z"/>
	<path d="M359.1,1.3h18.4l19.8,53.4l19.8-53.4h18l-30.6,76.3h-14.7L359.1,1.3z"/>
	<path d="M509.2,1.3h34.6C553.5,1.3,561,4,566,9c4.2,4.2,6.5,10.2,6.5,17.3v0.2c0,12.2-6.6,19.9-16.2,23.5l18.5,27.1h-19.5L539,52.8
		h-13.1v24.2h-16.7V1.3z M542.8,38.1c8.1,0,12.8-4.3,12.8-10.7v-0.2c0-7.1-5-10.8-13.1-10.8h-16.6v21.8H542.8z"/>
	<path d="M226.6,1.3h57.2v14.8h-40.6v15.4h40.6v14.8h-40.6v15.9h40.6v14.8h-57.2V1.3z"/>
	<path d="M441.6,1.3h57.2v14.8h-40.6v15.4h40.6v14.8h-40.6v15.9h40.6v14.8h-57.2V1.3z"/>
</g>
</svg>
